HIERARCHY
ROOT Hips
{
  OFFSET 57.8838 95.319 338.509
  CHANNELS 6 Xposition Yposition Zposition Zrotation Xrotation Yrotation
  JOINT LeftUpLeg
  {
    OFFSET 8.64259 1.95398 -2.38835
    CHANNELS 3 Zrotation Xrotation Yrotation
    JOINT LeftLeg
    {
      OFFSET 43.7702 0 0
      CHANNELS 3 Zrotation Xrotation Yrotation
      JOINT LeftFoot
      {
        OFFSET 40.6238 0 0
        CHANNELS 3 Zrotation Xrotation Yrotation
        JOINT LeftToeBase
        {
          OFFSET 12.7242 0 0
          CHANNELS 3 Zrotation Xrotation Yrotation
          End Site
          {
            OFFSET 0 0 0
          }
        }
      }
    }
  }
  JOINT RightUpLeg
  {
    OFFSET -8.2249 1.95398 -2.59336
    CHANNELS 3 Zrotation Xrotation Yrotation
    JOINT RightLeg
    {
      OFFSET 43.5653 0 0
      CHANNELS 3 Zrotation Xrotation Yrotation
      JOINT RightFoot
      {
        OFFSET 40.6238 0 0
        CHANNELS 3 Zrotation Xrotation Yrotation
        JOINT RightToeBase
        {
          OFFSET 12.7242 0 0
          CHANNELS 3 Zrotation Xrotation Yrotation
          End Site
          {
            OFFSET 0 0 0
          }
        }
      }
    }
  }
  JOINT Spine
  {
    OFFSET 0.165834 0.87714 6.61349
    CHANNELS 3 Zrotation Xrotation Yrotation
    JOINT Spine1
    {
      OFFSET 7.38963 1.71661e-005 0
      CHANNELS 3 Zrotation Xrotation Yrotation
      JOINT Spine2
      {
        OFFSET 11.9445 1.14441e-005 0
        CHANNELS 3 Zrotation Xrotation Yrotation
        JOINT Spine3
        {
          OFFSET 14.7254 4.19617e-005 0
          CHANNELS 3 Zrotation Xrotation Yrotation
          JOINT Spine4
          {
            OFFSET 10.9679 0 0
            CHANNELS 3 Zrotation Xrotation Yrotation
            JOINT RightShoulder
            {
              OFFSET 2.46616 -1.6653 3.69651
              CHANNELS 3 Zrotation Xrotation Yrotation
              JOINT RightArm
              {
                OFFSET 13.0012 0 0
                CHANNELS 3 Zrotation Xrotation Yrotation
                JOINT RightForeArm
                {
                  OFFSET 28.7848 1.62311e-005 0
                  CHANNELS 3 Zrotation Xrotation Yrotation
                  JOINT RightHand
                  {
                    OFFSET 26.5688 1.62095e-005 0
                    CHANNELS 3 Zrotation Xrotation Yrotation
                    End Site
                    {
                      OFFSET 0 0 0
                    }
                  }
                }
              }
            }
            JOINT LeftShoulder
            {
              OFFSET 2.38034 -1.29275 -3.7523
              CHANNELS 3 Zrotation Xrotation Yrotation
              JOINT LeftArm
              {
                OFFSET 16.3182 6.07031e-005 0
                CHANNELS 3 Zrotation Xrotation Yrotation
                JOINT LeftForeArm
                {
                  OFFSET 27.0901 0 0
                  CHANNELS 3 Zrotation Xrotation Yrotation
                  JOINT LeftHand
                  {
                    OFFSET 24.5451 1.51738e-005 0
                    CHANNELS 3 Zrotation Xrotation Yrotation
                    End Site
                    {
                      OFFSET 0 0 0
                    }
                  }
                }
              }
            }
            JOINT Neck
            {
              OFFSET 5.0226 -0.0266342 0
              CHANNELS 3 Zrotation Xrotation Yrotation
              JOINT Head
              {
                OFFSET 6.69364 2.86102e-005 0
                CHANNELS 3 Zrotation Xrotation Yrotation
                End Site
                {
                  OFFSET 0 0 0
                }
              }
            }
          }
        }
      }
    }
  }
}
MOTION
Frames:	10
Frame Time:	0.0416667
4.83309 97.1256 -17.9043 111.646 -85.5429 112.113 -177.51 2.52216 88.5614 -14.9034 2.46002 1.20618 66.1943 4.11128 0.253425 30.8921 0.740074 2.91626 173.784 1.54892 92.0844 -13.6749 -6.48332 -0.132977 65.6432 -6.69475 0.732285 30.6518 -2.48975 0.180434 -0.215697 6.93744 -90.2713 13.0038 -0.558398 -0.473875 1.33289 -0.578716 -0.448843 -21.202 -0.390172 -0.619788 -1.18939 -0.390171 -0.619785 97.7232 -50.8698 -88.8231 29.4415 -8.74813 -9.14696 3.33919 -6.1219 -13.502 -12.7331 -0.475473 -0.80011 -79.2923 -53.6206 94.9854 -40.4449 -25.4448 -21.3267 4.91986 71.1813 0.0204675 0.00423419 -0.0710724 -13.2107 13.9836 -1.28053 5.68605 -15.5173 -2.07565 -5.61191 
4.82023 97.1294 -17.8952 111.728 -85.5798 112.151 -177.389 2.29722 88.5671 -14.2724 1.74769 1.09912 66.098 4.13112 -0.0716672 30.8114 0.722015 2.49962 173.725 1.61277 92.0245 -13.8188 -6.62633 -0.0898691 65.7333 -6.7068 0.846125 30.4724 -2.25211 0.0748798 -0.222706 6.93794 -90.2581 13.0088 -0.565998 -0.446599 1.33793 -0.585107 -0.421256 -21.1972 -0.405622 -0.596057 -1.18454 -0.405617 -0.596062 97.7133 -51.1153 -88.817 29.2263 -8.652 -9.24084 2.98382 -7.13038 -13.5824 -11.5965 -0.64416 1.29529 -79.2895 -53.5829 94.9885 -39.9929 -24.4047 -21.0635 3.72403 66.1432 0.016324 2.7182 -0.244539 -12.7746 13.969 -1.56262 5.04361 -14.9578 -2.34435 -4.44954 
4.80301 97.1357 -17.8818 112.535 -85.6692 112.883 -177.513 2.33783 88.4245 -14.4724 1.28085 1.21661 66.267 4.01997 -0.438056 30.6594 0.642187 2.84427 173.622 1.62722 91.8708 -13.907 -7.00588 -0.00212022 65.7241 -6.76599 0.783841 30.6103 -2.43511 0.104203 -0.205667 6.9379 -90.259 12.9943 -0.532636 -0.453122 1.32341 -0.552059 -0.42925 -21.2116 -0.371833 -0.592253 -1.19895 -0.371826 -0.592247 97.7812 -51.1269 -88.7118 29.1185 -8.58023 -9.29756 2.96893 -7.07781 -13.5766 -11.6517 -0.632334 1.16599 -79.3685 -53.6987 94.8772 -40.1391 -24.4914 -21.3032 3.81267 66.6538 0.0166605 2.50472 -0.230041 -12.8397 14.0611 -1.57593 5.33189 -15.0899 -2.40009 -4.72318 
4.78043 97.142 -17.8602 111.468 -85.6299 111.831 -177.539 2.22123 88.4595 -14.1356 1.80398 1.20319 66.0051 4.21088 0.0675178 31.0498 0.817612 2.69273 173.673 1.6789 91.9183 -13.9709 -7.14991 -0.0183208 65.6879 -6.74807 0.652352 30.6046 -2.42865 -0.120348 -0.218963 6.93781 -90.2614 13.002 -0.560168 -0.454281 1.33114 -0.579621 -0.4292 -21.2039 -0.39774 -0.60163 -1.19129 -0.39775 -0.601645 97.8106 -51.1487 -88.6651 29.2086 -8.36615 -9.44962 2.87869 -7.3036 -13.6025 -11.3557 -0.64705 1.49593 -79.382 -53.766 94.8591 -40.0812 -24.4608 -21.357 3.68946 66.4866 0.0165486 2.83694 -0.243899 -12.5986 14.1719 -1.49658 5.58501 -15.2602 -2.34642 -5.07612 
4.75835 97.1321 -17.8586 111.516 -85.5993 111.859 -177.523 2.26571 88.4562 -14.1986 1.74788 1.19095 65.8987 4.15894 0.21699 31.2652 0.932676 2.09273 173.699 1.73084 91.8968 -14.1631 -7.36867 -0.0339579 65.7187 -6.67682 0.689381 30.649 -2.48914 -0.355404 -0.215179 6.93945 -90.2493 12.9942 -0.546855 -0.431877 1.32327 -0.565323 -0.40739 -21.2119 -0.391779 -0.576255 -1.1992 -0.391778 -0.576255 97.8307 -51.2634 -88.6242 29.201 -8.45922 -9.45977 2.90267 -7.24301 -13.6542 -11.4353 -0.650779 1.48841 -79.4648 -53.5463 94.7328 -40.1965 -24.2063 -21.4391 3.60495 66.1184 0.0163081 3.06633 -0.255086 -12.5821 14.0346 -1.56614 5.0778 -15.0149 -2.32894 -4.69282 
4.73591 97.1443 -17.8179 112.551 -85.5734 112.92 -177.442 2.11819 88.5355 -14.1257 1.65322 1.17684 66.0259 4.20293 -0.148377 30.9808 0.790568 2.61984 173.664 1.61031 91.8982 -14.2084 -7.64443 0.0142327 65.7268 -6.76604 0.648347 30.5373 -2.33963 -0.337581 -0.219209 6.94551 -90.2468 12.9817 -0.553618 -0.426078 1.31081 -0.57183 -0.401303 -21.2243 -0.399978 -0.572762 -1.21169 -0.399975 -0.572769 97.8206 -51.3115 -88.6358 29.2462 -8.54019 -9.48209 3.0097 -7.15218 -13.4396 -11.7155 -0.589522 0.690135 -79.4587 -53.6416 94.7443 -39.9986 -24.1432 -21.5117 3.51064 65.8071 0.0161106 3.43621 -0.289586 -12.8404 14.0491 -1.56642 4.97173 -15.1763 -2.30799 -4.58444 
4.70089 97.1357 -17.7917 113.303 -85.4884 113.758 -177.357 2.17717 88.6445 -14.4744 1.69559 1.19753 66.2444 4.23537 -0.375839 30.8883 0.729198 3.15408 173.69 1.48225 91.9758 -14.2048 -7.77296 0.0325882 65.6935 -6.73144 0.622946 30.5662 -2.37783 -0.200947 -0.223729 6.95467 -90.2543 12.9634 -0.566196 -0.439711 1.29246 -0.584993 -0.414378 -21.2427 -0.407867 -0.589545 -1.23003 -0.407872 -0.589555 97.8205 -51.2541 -88.6409 29.2978 -8.71416 -9.54418 3.03278 -7.25632 -13.3375 -11.7809 -0.582213 0.583805 -79.4863 -53.5948 94.7026 -40.1353 -24.3312 -21.6465 3.69574 66.5923 0.0166191 3.44198 -0.268295 -12.4379 14.031 -1.65349 5.20428 -15.3294 -2.40897 -4.91564 
4.69985 97.1547 -17.7583 113.778 -85.459 114.13 -177.494 2.03042 88.4885 -14.3051 1.52679 1.27808 66.0183 4.19652 -0.150476 31.219 0.901439 2.40629 173.573 1.44864 91.8196 -14.2732 -7.92442 0.0947041 65.6634 -6.61974 0.747793 30.7931 -2.68426 -0.587312 -0.23069 6.95815 -90.2396 12.9565 -0.572955 -0.409509 1.28558 -0.590417 -0.383897 -21.2497 -0.423384 -0.562765 -1.23702 -0.423395 -0.562774 97.7305 -51.3401 -88.7711 29.2279 -9.0679 -9.46775 2.91055 -7.58271 -13.7155 -11.9897 -0.699827 1.65597 -79.4818 -53.8178 94.7162 -39.9181 -24.2591 -21.8245 3.67572 66.3744 0.0164745 3.5715 -0.278044 -12.5971 13.7536 -1.57189 5.36522 -15.0937 -2.33577 -5.20225 
4.76195 97.146 -17.7513 114.658 -85.3977 114.864 -177.547 1.89953 88.3216 -14.2277 1.50004 1.24568 66.0106 4.43012 -0.0744767 31.2052 0.898382 2.3296 173.37 1.45061 91.5627 -14.4335 -8.00931 0.186248 65.7789 -6.82268 0.636283 30.7251 -2.59134 -0.38367 -0.245246 6.9708 -90.2053 12.9314 -0.585378 -0.339651 1.26054 -0.59976 -0.313564 -21.275 -0.456239 -0.499878 -1.26232 -0.456241 -0.499887 97.5313 -51.1891 -89.0889 29.2829 -9.13143 -9.44796 3.06261 -6.8027 -13.7723 -11.9382 -0.662742 1.31615 -79.7003 -53.8407 94.3997 -40.152 -24.5373 -21.8688 4.08415 67.3585 0.0171505 2.95879 -0.24116 -12.6312 13.1542 -1.65106 5.14667 -14.4096 -2.3816 -5.01173 
4.82922 97.1235 -17.7251 115.008 -85.6333 115.235 -177.531 2.06571 88.2686 -14.4813 1.29158 1.21346 66.0654 4.43624 -0.063652 31.2509 0.905305 2.66856 173.366 1.52454 91.5164 -14.3837 -7.97209 0.174868 65.7673 -6.80033 0.668477 30.7991 -2.68851 -0.176755 -0.262742 6.98088 -90.1585 12.9116 -0.597626 -0.244611 1.24078 -0.607809 -0.218083 -21.295 -0.496485 -0.412915 -1.28235 -0.496478 -0.412919 97.4515 -51.1273 -89.2166 29.5435 -9.00988 -9.75142 3.27704 -6.5768 -13.5281 -12.6889 -0.664094 0.925128 -79.5011 -53.8658 94.6898 -40.0584 -24.6374 -21.8834 4.13737 68.3988 0.0179341 2.41799 -0.207022 -12.4693 13.0109 -1.47503 4.60838 -14.3686 -2.1406 -4.3454 
